<svg width="60" height="60" viewBox="0 0 60 60" fill="none" xmlns="http://www.w3.org/2000/svg">
<rect width="60" height="60" rx="10" fill="#7768E5"/>
<g clip-path="url(#clip0_2_1610)">
<path d="M40.89 17.0699H32.34C32.22 17.0699 32.115 17.1299 32.025 17.2499C31.935 17.3699 31.89 17.5049 31.89 17.6549C31.89 17.8049 31.935 17.9249 32.025 18.0149C32.115 18.1049 32.22 18.1499 32.34 18.1499H40.89C41.31 18.1499 41.67 18.2999 41.97 18.5999C42.27 18.8999 42.42 19.2899 42.42 19.7699V32.5499H17.58V19.7699C17.58 19.2899 17.73 18.8999 18.03 18.5999C18.33 18.2999 18.69 18.1499 19.11 18.1499H27.66C27.78 18.1499 27.9 18.1049 28.02 18.0149C28.14 17.9249 28.2 17.8049 28.2 17.6549C28.2 17.5049 28.14 17.3699 28.02 17.2499C27.9 17.1299 27.78 17.0699 27.66 17.0699H19.11C18.39 17.0699 17.775 17.3399 17.265 17.8799C16.755 18.4199 16.5 19.0499 16.5 19.7699V37.2299C16.5 37.9499 16.755 38.5799 17.265 39.1199C17.775 39.6599 18.39 39.9299 19.11 39.9299H40.89C41.61 39.9299 42.225 39.6599 42.735 39.1199C43.245 38.5799 43.5 37.9499 43.5 37.2299V19.7699C43.5 19.0499 43.245 18.4199 42.735 17.8799C42.225 17.3399 41.61 17.0699 40.89 17.0699ZM40.89 38.8499H19.11C18.69 38.8499 18.33 38.6999 18.03 38.3999C17.73 38.0999 17.58 37.7099 17.58 37.2299V33.5399H42.42V37.2299C42.42 37.7099 42.27 38.0999 41.97 38.3999C41.67 38.6999 41.31 38.8499 40.89 38.8499ZM21.81 34.6199C21.33 34.6199 20.94 34.7699 20.64 35.0699C20.34 35.3699 20.19 35.7449 20.19 36.1949C20.19 36.6449 20.34 37.0199 20.64 37.3199C20.94 37.6199 21.315 37.7699 21.765 37.7699C22.215 37.7699 22.59 37.6199 22.89 37.3199C23.19 37.0199 23.34 36.6449 23.34 36.1949C23.34 35.7449 23.19 35.3699 22.89 35.0699C22.59 34.7699 22.23 34.6199 21.81 34.6199ZM21.81 36.6899C21.63 36.6899 21.495 36.6449 21.405 36.5549C21.315 36.4649 21.27 36.3449 21.27 36.1949C21.27 36.0449 21.315 35.9249 21.405 35.8349C21.495 35.7449 21.615 35.6999 21.765 35.6999C21.915 35.6999 22.035 35.7449 22.125 35.8349C22.215 35.9249 22.26 36.0449 22.26 36.1949C22.26 36.3449 22.215 36.4649 22.125 36.5549C22.035 36.6449 21.93 36.6899 21.81 36.6899ZM39.27 35.6999H26.13C26.01 35.6999 25.89 35.7449 25.77 35.8349C25.65 35.9249 25.59 36.0449 25.59 36.1949C25.59 36.3449 25.65 36.4649 25.77 36.5549C25.89 36.6449 26.01 36.6899 26.13 36.6899H39.27C39.45 36.6899 39.585 36.6449 39.675 36.5549C39.765 36.4649 39.81 36.3449 39.81 36.1949C39.81 36.0449 39.765 35.9249 39.675 35.8349C39.585 35.7449 39.45 35.6999 39.27 35.6999ZM27.3 23.7299V26.9699C27.3 27.5099 27.54 27.9299 28.02 28.2299C28.26 28.3499 28.515 28.4099 28.785 28.4099C29.055 28.4099 29.31 28.3499 29.55 28.2299L32.34 26.6099C32.82 26.3099 33.06 25.8749 33.06 25.3049C33.06 24.7349 32.82 24.2999 32.34 23.9999L29.55 22.4699C29.07 22.1699 28.575 22.1549 28.065 22.4249C27.555 22.6949 27.3 23.1299 27.3 23.7299ZM28.38 23.7299C28.38 23.5499 28.425 23.4299 28.515 23.3699C28.605 23.3099 28.695 23.2799 28.785 23.2799C28.875 23.2799 28.95 23.3099 29.01 23.3699L31.8 24.9899C31.98 25.0499 32.07 25.1699 32.07 25.3499C32.07 25.5299 31.98 25.6499 31.8 25.7099L29.01 27.3299C28.89 27.3899 28.755 27.3749 28.605 27.2849C28.455 27.1949 28.38 27.0899 28.38 26.9699V23.7299ZM30 18.1499C30.18 18.1499 30.315 18.1049 30.405 18.0149C30.495 17.9249 30.54 17.8049 30.54 17.6549C30.54 17.5049 30.495 17.3699 30.405 17.2499C30.315 17.1299 30.195 17.0699 30.045 17.0699C29.895 17.0699 29.76 17.1299 29.64 17.2499C29.52 17.3699 29.46 17.5049 29.46 17.6549C29.46 17.8049 29.52 17.9249 29.64 18.0149C29.76 18.1049 29.88 18.1499 30 18.1499Z" fill="white"/>
</g>
<defs>
<clipPath id="clip0_2_1610">
<rect width="27" height="27" fill="white" transform="matrix(1 0 0 -1 16.5 42)"/>
</clipPath>
</defs>
</svg>
