<svg width="60" height="60" viewBox="0 0 60 60" fill="none" xmlns="http://www.w3.org/2000/svg">
<rect width="60" height="60" rx="10" fill="#7768E5"/>
<g clip-path="url(#clip0_2_1615)">
<path d="M37.29 22.38C37.23 22.26 37.155 22.2 37.065 22.2C36.975 22.2 36.885 22.215 36.795 22.245C36.705 22.275 36.645 22.35 36.615 22.47C36.585 22.59 36.6 22.71 36.66 22.83C37.32 23.91 37.68 25.11 37.74 26.43H35.85C35.73 26.07 35.505 25.755 35.175 25.485C34.845 25.215 34.485 25.08 34.095 25.08C33.705 25.08 33.345 25.215 33.015 25.485C32.685 25.755 32.46 26.07 32.34 26.43H30.36V24.18C30.36 24.06 30.33 23.955 30.27 23.865C30.21 23.775 30.12 23.73 30 23.73C29.76 23.73 29.535 23.64 29.325 23.46C29.115 23.28 29.01 23.055 29.01 22.785C29.01 22.515 29.115 22.29 29.325 22.11C29.535 21.93 29.76 21.84 30 21.84C30.12 21.84 30.21 21.795 30.27 21.705C30.33 21.615 30.36 21.51 30.36 21.39V19.05C31.38 19.11 32.34 19.35 33.24 19.77C34.14 20.19 34.95 20.76 35.67 21.48C35.85 21.66 36.03 21.66 36.21 21.48C36.27 21.42 36.3 21.33 36.3 21.21C36.3 21.09 36.27 21 36.21 20.94C35.37 20.1 34.425 19.455 33.375 19.005C32.325 18.555 31.2 18.33 30 18.33C28.98 18.33 27.975 18.51 26.985 18.87C25.995 19.23 25.11 19.74 24.33 20.4C24.27 20.46 24.225 20.55 24.195 20.67C24.165 20.79 24.195 20.895 24.285 20.985C24.375 21.075 24.48 21.12 24.6 21.12C24.72 21.12 24.81 21.09 24.87 21.03C26.19 19.83 27.78 19.17 29.64 19.05V21.03C29.22 21.15 28.875 21.36 28.605 21.66C28.335 21.96 28.2 22.32 28.2 22.74C28.2 23.16 28.335 23.535 28.605 23.865C28.875 24.195 29.22 24.39 29.64 24.45V26.43H27.3C27.18 26.43 27.075 26.475 26.985 26.565C26.895 26.655 26.85 26.76 26.85 26.88C26.85 27.12 26.76 27.345 26.58 27.555C26.4 27.765 26.175 27.87 25.905 27.87C25.635 27.87 25.41 27.765 25.23 27.555C25.05 27.345 24.96 27.12 24.96 26.88C24.96 26.76 24.915 26.655 24.825 26.565C24.735 26.475 24.63 26.43 24.51 26.43H22.26C22.32 24.87 22.83 23.46 23.79 22.2C23.85 22.14 23.865 22.05 23.835 21.93C23.805 21.81 23.745 21.72 23.655 21.66C23.565 21.6 23.475 21.57 23.385 21.57C23.295 21.57 23.19 21.63 23.07 21.75C21.99 23.25 21.45 24.96 21.45 26.88C21.39 28.5 21.825 30.015 22.755 31.425C23.685 32.835 24.87 33.9 26.31 34.62C26.67 34.8 26.85 35.1 26.85 35.52V36.33C26.43 36.33 26.1 36.435 25.86 36.645C25.62 36.855 25.5 37.14 25.5 37.5C25.5 37.86 25.62 38.16 25.86 38.4C26.1 38.64 26.43 38.76 26.85 38.76V40.56C26.85 40.92 27 41.25 27.3 41.55C27.6 41.85 27.96 42 28.38 42H31.62C32.04 42 32.4 41.85 32.7 41.55C33 41.25 33.15 40.92 33.15 40.56V38.76C33.57 38.76 33.9 38.64 34.14 38.4C34.38 38.16 34.5 37.86 34.5 37.5C34.5 37.14 34.38 36.855 34.14 36.645C33.9 36.435 33.57 36.33 33.15 36.33V35.52C33.15 35.1 33.33 34.8 33.69 34.62C35.19 33.9 36.375 32.835 37.245 31.425C38.115 30.015 38.55 28.5 38.55 26.88C38.55 25.26 38.13 23.76 37.29 22.38ZM26.67 33.9C25.35 33.3 24.3 32.4 23.52 31.2C22.74 30 22.32 28.68 22.26 27.24H24.15C24.27 27.66 24.495 27.99 24.825 28.23C25.155 28.47 25.515 28.59 25.905 28.59C26.295 28.59 26.655 28.47 26.985 28.23C27.315 27.99 27.54 27.66 27.66 27.24H29.64V29.58C29.64 29.7 29.67 29.805 29.73 29.895C29.79 29.985 29.88 30.03 30 30.03C30.24 30.03 30.465 30.12 30.675 30.3C30.885 30.48 30.99 30.705 30.99 30.975C30.99 31.245 30.885 31.47 30.675 31.65C30.465 31.83 30.24 31.92 30 31.92C29.88 31.92 29.79 31.965 29.73 32.055C29.67 32.145 29.64 32.25 29.64 32.37V36.33H27.66V35.52C27.66 35.16 27.57 34.845 27.39 34.575C27.21 34.305 26.97 34.08 26.67 33.9ZM31.62 41.19H28.38C28.14 41.19 27.96 41.115 27.84 40.965C27.72 40.815 27.66 40.62 27.66 40.38H32.34C32.34 40.92 32.1 41.19 31.62 41.19ZM33.24 37.95H30.81C30.69 37.95 30.6 37.98 30.54 38.04C30.48 38.1 30.45 38.19 30.45 38.31C30.45 38.43 30.48 38.535 30.54 38.625C30.6 38.715 30.69 38.76 30.81 38.76H32.34V39.57H27.66V38.76H29.1C29.22 38.76 29.31 38.715 29.37 38.625C29.43 38.535 29.46 38.43 29.46 38.31C29.46 38.19 29.43 38.1 29.37 38.04C29.31 37.98 29.22 37.95 29.1 37.95H26.76C26.52 37.95 26.37 37.875 26.31 37.725C26.25 37.575 26.25 37.425 26.31 37.275C26.37 37.125 26.52 37.05 26.76 37.05H33.24C33.42 37.05 33.555 37.125 33.645 37.275C33.735 37.425 33.75 37.575 33.69 37.725C33.63 37.875 33.48 37.95 33.24 37.95ZM33.33 33.9C33.03 34.08 32.79 34.305 32.61 34.575C32.43 34.845 32.34 35.16 32.34 35.52V36.33H30.36V32.64C30.78 32.58 31.125 32.385 31.395 32.055C31.665 31.725 31.8 31.35 31.8 30.93C31.8 30.51 31.665 30.15 31.395 29.85C31.125 29.55 30.78 29.34 30.36 29.22V27.24H32.7C32.82 27.24 32.925 27.21 33.015 27.15C33.105 27.09 33.15 27 33.15 26.88C33.15 26.58 33.24 26.34 33.42 26.16C33.6 25.98 33.825 25.89 34.095 25.89C34.365 25.89 34.59 25.98 34.77 26.16C34.95 26.34 35.04 26.58 35.04 26.88C35.04 27 35.085 27.09 35.175 27.15C35.265 27.21 35.37 27.24 35.49 27.24H37.74C37.68 28.68 37.26 30 36.48 31.2C35.7 32.4 34.65 33.3 33.33 33.9ZM30 17.43C29.88 17.43 29.79 17.385 29.73 17.295C29.67 17.205 29.64 17.13 29.64 17.07V15.36C29.64 15.3 29.67 15.225 29.73 15.135C29.79 15.045 29.88 15 30 15C30.12 15 30.21 15.045 30.27 15.135C30.33 15.225 30.36 15.3 30.36 15.36V17.07C30.36 17.13 30.33 17.205 30.27 17.295C30.21 17.385 30.12 17.43 30 17.43ZM35.49 18.87C35.43 18.87 35.385 18.81 35.355 18.69C35.325 18.57 35.34 18.45 35.4 18.33L36.21 16.98C36.27 16.86 36.345 16.785 36.435 16.755C36.525 16.725 36.63 16.74 36.75 16.8C36.87 16.86 36.93 16.95 36.93 17.07C36.93 17.19 36.93 17.28 36.93 17.34L36.03 18.78C36.03 18.84 35.97 18.885 35.85 18.915C35.73 18.945 35.61 18.93 35.49 18.87ZM39.54 22.92C39.54 22.86 39.555 22.77 39.585 22.65C39.615 22.53 39.66 22.44 39.72 22.38L41.16 21.57C41.22 21.51 41.31 21.495 41.43 21.525C41.55 21.555 41.64 21.63 41.7 21.75C41.76 21.87 41.775 21.975 41.745 22.065C41.715 22.155 41.64 22.23 41.52 22.29L40.08 23.1C40.02 23.16 39.93 23.175 39.81 23.145C39.69 23.115 39.6 23.04 39.54 22.92ZM18.3 35.25C18.24 35.13 18.225 35.025 18.255 34.935C18.285 34.845 18.36 34.77 18.48 34.71L19.92 33.9C19.98 33.84 20.07 33.825 20.19 33.855C20.31 33.885 20.385 33.945 20.415 34.035C20.445 34.125 20.445 34.23 20.415 34.35C20.385 34.47 20.34 34.53 20.28 34.53L18.84 35.43C18.6 35.55 18.42 35.49 18.3 35.25ZM23.97 18.78L23.07 17.34C23.07 17.28 23.07 17.19 23.07 17.07C23.07 16.95 23.13 16.86 23.25 16.8C23.37 16.74 23.475 16.725 23.565 16.755C23.655 16.785 23.73 16.86 23.79 16.98L24.6 18.33C24.66 18.45 24.675 18.555 24.645 18.645C24.615 18.735 24.555 18.81 24.465 18.87C24.375 18.93 24.27 18.945 24.15 18.915C24.03 18.885 23.97 18.84 23.97 18.78ZM19.92 23.1L18.48 22.29C18.36 22.23 18.285 22.155 18.255 22.065C18.225 21.975 18.24 21.87 18.3 21.75C18.36 21.63 18.45 21.555 18.57 21.525C18.69 21.495 18.78 21.51 18.84 21.57L20.28 22.38C20.4 22.44 20.475 22.53 20.505 22.65C20.535 22.77 20.52 22.86 20.46 22.92C20.28 23.16 20.1 23.22 19.92 23.1ZM41.16 35.43L39.72 34.53C39.66 34.53 39.615 34.47 39.585 34.35C39.555 34.23 39.555 34.125 39.585 34.035C39.615 33.945 39.69 33.885 39.81 33.855C39.93 33.825 40.02 33.84 40.08 33.9L41.52 34.71C41.64 34.77 41.715 34.845 41.745 34.935C41.775 35.025 41.76 35.13 41.7 35.25C41.52 35.49 41.34 35.55 41.16 35.43ZM18.57 28.86H16.86C16.8 28.86 16.725 28.83 16.635 28.77C16.545 28.71 16.5 28.62 16.5 28.5C16.5 28.38 16.545 28.29 16.635 28.23C16.725 28.17 16.8 28.14 16.86 28.14H18.57C18.63 28.14 18.705 28.17 18.795 28.23C18.885 28.29 18.93 28.38 18.93 28.5C18.93 28.62 18.885 28.71 18.795 28.77C18.705 28.83 18.63 28.86 18.57 28.86ZM43.14 28.86H41.43C41.37 28.86 41.295 28.83 41.205 28.77C41.115 28.71 41.07 28.62 41.07 28.5C41.07 28.38 41.115 28.29 41.205 28.23C41.295 28.17 41.37 28.14 41.43 28.14H43.14C43.2 28.14 43.275 28.17 43.365 28.23C43.455 28.29 43.5 28.38 43.5 28.5C43.5 28.62 43.455 28.71 43.365 28.77C43.275 28.83 43.2 28.86 43.14 28.86Z" fill="white"/>
</g>
<defs>
<clipPath id="clip0_2_1615">
<rect width="27" height="27" fill="white" transform="matrix(1 0 0 -1 16.5 42)"/>
</clipPath>
</defs>
</svg>
